<svg xmlns="http://www.w3.org/2000/svg" xmlns:xlink="http://www.w3.org/1999/xlink" width="500" zoomAndPan="magnify" viewBox="0 0 375 374.999991" height="500" preserveAspectRatio="xMidYMid meet" version="1.0"><defs><clipPath id="id1"><path d="M 37.5 190 L 248 190 L 248 337 L 37.5 337 Z M 37.5 190 " clip-rule="nonzero"/></clipPath><clipPath id="id2"><path d="M 37.5 196 L 305 196 L 305 337 L 37.5 337 Z M 37.5 196 " clip-rule="nonzero"/></clipPath><clipPath id="id3"><path d="M 91 137 L 330 137 L 330 337.433594 L 91 337.433594 Z M 91 137 " clip-rule="nonzero"/></clipPath><clipPath id="id4"><path d="M 223 62.457031 L 331 62.457031 L 331 165.957031 L 223 165.957031 Z M 223 62.457031 " clip-rule="nonzero"/></clipPath></defs><path fill="#ffdec7" d="M 272.261719 258.351562 L 274.386719 252.398438 C 274.386719 252.398438 270.75 247.734375 268.113281 238.679688 C 267.238281 235.6875 265.957031 232.824219 264.292969 230.1875 C 261.925781 226.433594 259.019531 220.742188 260.34375 217.085938 C 262.46875 211.238281 272.363281 208.894531 276.726562 226.234375 C 276.726562 226.234375 289.46875 223.054688 296.851562 209.304688 C 303.53125 196.859375 306.53125 192.929688 310.554688 195.226562 C 315.480469 198.046875 310.554688 206.027344 310.554688 206.027344 C 310.554688 206.027344 317.664062 195.027344 322.46875 199.019531 C 325.917969 201.882812 322.644531 208.023438 322.644531 208.023438 C 322.644531 208.023438 335.25 203.082031 328.425781 218.714844 C 328.425781 218.714844 337.46875 218.597656 326.726562 235.867188 C 315.980469 253.140625 300.320312 257.289062 300.320312 257.289062 L 295.992188 267.285156 Z M 272.261719 258.351562 " fill-opacity="1" fill-rule="nonzero"/><g clip-path="url(#id1)"><path fill="#f8f620" d="M 247.011719 232.59375 L 231.414062 293.5625 L 229.75 300.074219 L 224.949219 318.839844 L 224.929688 318.925781 L 224.929688 318.929688 L 220.363281 336.785156 L 45.789062 336.785156 C 45.789062 336.785156 37.980469 315.457031 37.699219 289.726562 C 37.695312 289.71875 37.695312 289.71875 37.695312 289.71875 C 37.476562 269.648438 41.832031 246.898438 58.050781 229.519531 C 62.113281 225.164062 66.925781 221.152344 72.59375 217.597656 C 82.050781 211.675781 90.863281 207.042969 98.917969 203.433594 C 105.167969 200.625 110.96875 198.433594 116.261719 196.726562 C 117.023438 196.476562 117.78125 196.242188 118.523438 196.015625 C 118.925781 195.898438 119.324219 195.777344 119.71875 195.660156 C 124.824219 194.140625 129.414062 193.085938 133.425781 192.359375 C 145.78125 190.097656 152.707031 190.917969 152.707031 190.917969 C 155.632812 191.230469 158.476562 191.578125 161.226562 191.960938 C 168.738281 192.984375 175.613281 194.234375 181.90625 195.660156 L 181.90625 195.664062 L 182.976562 195.910156 C 185.132812 196.410156 187.21875 196.925781 189.238281 197.464844 C 194.71875 198.921875 199.707031 200.507812 204.238281 202.183594 C 239.148438 215.015625 247.011719 232.59375 247.011719 232.59375 Z M 247.011719 232.59375 " fill-opacity="1" fill-rule="nonzero"/></g><path fill="#2009ef" d="M 302.914062 266.488281 L 301.476562 272.949219 C 301.117188 274.546875 299.726562 275.703125 298.085938 275.765625 C 284.613281 276.285156 273.519531 270.292969 268.917969 267.355469 C 267.554688 266.480469 266.929688 264.8125 267.40625 263.269531 L 269.261719 257.214844 C 269.945312 254.988281 272.523438 253.996094 274.53125 255.175781 C 283.625 260.527344 293.90625 261.832031 299.570312 262.125 C 301.800781 262.230469 303.398438 264.3125 302.914062 266.488281 Z M 161.082031 183.667969 L 161.226562 191.960938 C 158.476562 191.578125 155.632812 191.230469 152.710938 190.917969 C 152.710938 190.917969 145.789062 190.097656 133.429688 192.359375 L 128.136719 184.730469 C 128.136719 184.730469 118.144531 186.640625 116.226562 207.28125 L 114.707031 223.628906 C 114.492188 225.902344 116.332031 227.847656 118.613281 227.765625 L 124.832031 227.546875 L 140.644531 326.125 L 141.269531 330.023438 L 142.355469 336.785156 L 185.742188 336.785156 L 185.554688 329.917969 L 185.4375 325.519531 L 182.632812 222.210938 L 189.617188 220.972656 C 191.824219 220.585938 193.21875 218.367188 192.613281 216.210938 C 183 182.1875 161.082031 183.667969 161.082031 183.667969 Z M 161.082031 183.667969 " fill-opacity="1" fill-rule="nonzero"/><path fill="#f8f620" d="M 309.8125 278.078125 L 304.6875 299.867188 L 302.382812 309.671875 L 299.195312 323.210938 L 296 336.785156 L 235.148438 336.785156 L 224.929688 318.929688 L 224.929688 318.925781 L 220.613281 311.382812 L 218.980469 308.535156 L 219.886719 306.070312 L 247.011719 232.59375 L 262.230469 264.957031 L 262.386719 264.539062 C 263.21875 262.339844 265.875 261.480469 267.851562 262.769531 C 280.914062 271.265625 297.273438 272.640625 305.636719 272.730469 C 308.417969 272.761719 310.449219 275.371094 309.8125 278.078125 Z M 309.8125 278.078125 " fill-opacity="1" fill-rule="nonzero"/><g clip-path="url(#id2)"><path fill="#d6d60a" d="M 304.6875 299.867188 L 302.382812 309.671875 L 299.195312 323.210938 L 296 336.785156 L 235.148438 336.785156 L 224.929688 318.929688 L 220.363281 336.785156 L 185.738281 336.785156 L 185.550781 329.917969 L 185.429688 325.519531 L 185.738281 325.128906 C 200.425781 322.292969 212.09375 313.664062 219.886719 306.070312 C 226.988281 299.160156 230.867188 293.113281 230.867188 293.113281 L 231.414062 293.5625 L 246.699219 306.152344 L 247.011719 306.410156 C 263.238281 316.226562 275.917969 316.65625 285.199219 313.820312 C 298.195312 309.851562 304.507812 299.472656 304.507812 299.472656 C 304.570312 299.605469 304.632812 299.734375 304.6875 299.867188 Z M 141.261719 330.023438 L 140.636719 326.125 C 115.804688 329.042969 97.570312 317.40625 97.570312 317.40625 C 54.179688 319.554688 38 290.28125 37.699219 289.726562 C 37.980469 315.457031 45.789062 336.785156 45.789062 336.785156 L 142.351562 336.785156 Z M 98.917969 203.433594 L 109.417969 215.191406 L 116.261719 196.726562 C 110.96875 198.433594 105.167969 200.625 98.917969 203.433594 Z M 189.238281 197.464844 L 198.117188 215.191406 L 204.238281 202.183594 C 199.707031 200.507812 194.71875 198.921875 189.238281 197.464844 Z M 189.238281 197.464844 " fill-opacity="1" fill-rule="nonzero"/></g><path fill="#ffdec7" d="M 193.648438 131.535156 L 193.648438 155.335938 C 193.648438 169.539062 184.96875 181.820312 172.648438 187.125 C 168.46875 188.929688 163.867188 189.929688 159.050781 189.929688 C 154.242188 189.929688 149.664062 188.9375 145.492188 187.140625 C 135.101562 182.6875 127.292969 173.277344 125.085938 161.921875 C 124.667969 159.792969 124.449219 157.585938 124.449219 155.335938 L 124.449219 131.535156 C 124.449219 112.507812 140.019531 96.945312 159.050781 96.945312 C 164.082031 96.945312 168.867188 98.03125 173.195312 99.992188 C 175.851562 101.1875 178.332031 102.710938 180.585938 104.515625 C 181.601562 105.324219 182.570312 106.183594 183.488281 107.105469 C 189.757812 113.371094 193.648438 122.019531 193.648438 131.535156 Z M 193.648438 131.535156 " fill-opacity="1" fill-rule="nonzero"/><path fill="#2b1200" d="M 204.5625 119.621094 C 204.5625 127.085938 200.207031 133.640625 193.648438 137.339844 L 193.648438 131.535156 C 193.648438 128.800781 193.320312 126.136719 192.710938 123.574219 C 183.667969 126.019531 171.21875 121.230469 163.3125 110.546875 C 157.96875 103.324219 153.632812 105.273438 151.476562 107.148438 C 150.542969 107.960938 149.324219 108.402344 148.101562 108.253906 C 145.125 107.898438 139.617188 109.359375 138.988281 124.742188 C 138.113281 145.964844 112.417969 146.226562 102.125 134.605469 C 94.023438 125.460938 99.5625 114.144531 106.570312 109.910156 C 110.050781 107.804688 112.917969 104.824219 114.960938 101.304688 C 117.429688 97.0625 124.570312 90.300781 132.851562 92.558594 C 142.320312 75.703125 166.054688 89.070312 175.273438 94.605469 C 178.96875 96.824219 182.992188 98.394531 187.1875 99.375 C 197.1875 101.730469 204.5625 109.902344 204.5625 119.621094 Z M 204.5625 119.621094 " fill-opacity="1" fill-rule="nonzero"/><path fill="#2009ef" d="M 189.585938 129.625 C 183.835938 129.625 179.019531 133.46875 177.738281 138.609375 C 177.195312 138.285156 176.4375 137.972656 175.488281 137.945312 C 174.394531 137.914062 173.53125 138.277344 172.9375 138.640625 C 171.667969 133.480469 166.835938 129.625 161.082031 129.625 C 155.382812 129.625 150.601562 133.398438 149.269531 138.476562 L 108.867188 138.476562 C 108.523438 138.476562 108.242188 138.757812 108.242188 139.101562 C 108.242188 139.445312 108.523438 139.726562 108.867188 139.726562 L 149.019531 139.726562 C 148.945312 140.253906 148.894531 140.785156 148.894531 141.320312 C 148.894531 147.769531 154.363281 153.019531 161.085938 153.019531 C 167.8125 153.019531 173.28125 147.769531 173.28125 141.320312 C 173.28125 140.871094 173.25 140.429688 173.195312 139.992188 C 173.53125 139.710938 174.332031 139.164062 175.457031 139.195312 C 176.417969 139.222656 177.117188 139.660156 177.488281 139.953125 C 177.429688 140.402344 177.394531 140.859375 177.394531 141.328125 C 177.394531 147.777344 182.863281 153.023438 189.585938 153.023438 C 196.3125 153.023438 201.78125 147.777344 201.78125 141.328125 C 201.78125 134.878906 196.3125 129.625 189.585938 129.625 Z M 161.082031 151.773438 C 155.042969 151.773438 150.136719 147.089844 150.136719 141.328125 C 150.136719 135.566406 155.050781 130.878906 161.082031 130.878906 C 167.113281 130.878906 172.023438 135.566406 172.023438 141.328125 C 172.023438 147.089844 167.117188 151.773438 161.082031 151.773438 Z M 189.585938 151.773438 C 183.550781 151.773438 178.644531 147.089844 178.644531 141.328125 C 178.644531 135.566406 183.554688 130.878906 189.585938 130.878906 C 195.625 130.878906 200.53125 135.566406 200.53125 141.328125 C 200.53125 147.089844 195.617188 151.773438 189.585938 151.773438 Z M 189.585938 151.773438 " fill-opacity="1" fill-rule="nonzero"/><path fill="#ffdec7" d="M 172.648438 162.023438 L 172.648438 197.175781 L 159.050781 224.296875 L 125.085938 194.714844 L 125.085938 169.140625 C 123.726562 169.675781 122.28125 170.027344 120.773438 170.144531 C 111.007812 170.914062 102.304688 161.730469 101.585938 152.59375 C 101.179688 147.382812 103.394531 142.535156 107.1875 139.191406 C 110.039062 136.660156 113.78125 134.992188 117.976562 134.667969 C 122.28125 134.328125 126.335938 135.453125 129.59375 137.597656 C 133.726562 140.320312 136.570312 144.695312 136.96875 149.808594 C 137.292969 153.925781 136.011719 158.300781 133.625 161.941406 Z M 172.648438 162.023438 " fill-opacity="1" fill-rule="nonzero"/><g clip-path="url(#id3)"><path fill="#2b1200" d="M 172.648438 187.125 L 172.648438 194.253906 C 170.820312 194.558594 168.9375 194.714844 167.023438 194.714844 C 158.90625 194.714844 151.414062 191.878906 145.492188 187.140625 C 149.664062 188.9375 154.242188 189.929688 159.050781 189.929688 C 163.867188 189.929688 168.46875 188.929688 172.648438 187.125 Z M 161.800781 137.671875 C 159.6875 137.671875 157.96875 139.382812 157.96875 141.503906 C 157.96875 143.613281 159.679688 145.332031 161.800781 145.332031 C 163.917969 145.332031 165.632812 143.621094 165.632812 141.503906 C 165.632812 139.382812 163.914062 137.671875 161.800781 137.671875 Z M 181.90625 137.671875 C 179.792969 137.671875 178.074219 139.382812 178.074219 141.503906 C 178.074219 143.613281 179.789062 145.332031 181.90625 145.332031 C 184.023438 145.332031 185.738281 143.621094 185.738281 141.503906 C 185.738281 139.382812 184.023438 137.671875 181.90625 137.671875 Z M 165.75 161.03125 C 164.457031 161.03125 163.648438 162.492188 164.398438 163.546875 C 165.71875 165.402344 168.445312 166.679688 171.585938 166.679688 C 174.738281 166.679688 177.460938 165.402344 178.773438 163.546875 C 179.523438 162.492188 178.71875 161.03125 177.425781 161.03125 Z M 117.300781 162.648438 C 117.007812 162.648438 116.75 162.441406 116.6875 162.148438 L 116.617188 161.816406 C 116.101562 159.242188 117.230469 156.554688 119.507812 154.972656 C 122.15625 153.132812 121.539062 148.882812 121.53125 148.839844 C 121.523438 148.808594 121.523438 148.777344 121.523438 148.746094 C 121.523438 145.796875 119.125 143.402344 116.179688 143.402344 C 113.230469 143.402344 110.835938 145.800781 110.835938 148.746094 C 110.835938 149.089844 110.554688 149.371094 110.210938 149.371094 C 109.867188 149.371094 109.585938 149.089844 109.585938 148.746094 C 109.585938 145.109375 112.542969 142.152344 116.179688 142.152344 C 119.800781 142.152344 122.75 145.082031 122.773438 148.699219 C 122.855469 149.261719 123.382812 153.8125 120.21875 156.003906 C 118.355469 157.300781 117.425781 159.484375 117.84375 161.574219 L 117.914062 161.902344 C 117.980469 162.242188 117.761719 162.574219 117.425781 162.640625 C 117.382812 162.648438 117.335938 162.648438 117.300781 162.648438 Z M 174.367188 158.054688 L 176.261719 156.179688 C 178.480469 153.980469 179.226562 150.667969 178.15625 147.734375 L 176.269531 142.558594 C 176.148438 142.234375 175.792969 142.070312 175.46875 142.183594 C 175.144531 142.300781 174.976562 142.660156 175.09375 142.984375 L 176.980469 148.15625 C 177.886719 150.632812 177.257812 153.429688 175.382812 155.285156 L 173.488281 157.160156 C 173.242188 157.40625 173.238281 157.800781 173.480469 158.042969 C 173.605469 158.167969 173.761719 158.230469 173.925781 158.230469 C 174.085938 158.238281 174.242188 158.175781 174.367188 158.054688 Z M 292.960938 241.925781 C 293.300781 241.835938 293.5 241.5 293.414062 241.167969 C 291.179688 232.402344 280.613281 229.269531 278.667969 228.765625 L 277.292969 225.957031 C 277.144531 225.644531 276.769531 225.519531 276.457031 225.671875 C 276.144531 225.820312 276.019531 226.195312 276.167969 226.507812 L 277.675781 229.570312 C 277.757812 229.738281 277.914062 229.863281 278.09375 229.902344 C 278.210938 229.925781 289.988281 232.746094 292.199219 241.46875 C 292.269531 241.75 292.523438 241.9375 292.804688 241.9375 C 292.863281 241.941406 292.914062 241.9375 292.960938 241.925781 Z M 298.875 222.308594 C 305.832031 215.773438 311.054688 206.417969 311.105469 206.324219 C 311.273438 206.027344 311.164062 205.644531 310.863281 205.476562 C 310.5625 205.308594 310.179688 205.417969 310.011719 205.71875 C 309.960938 205.8125 304.832031 215 298.019531 221.398438 C 297.769531 221.632812 297.757812 222.027344 297.992188 222.277344 C 298.117188 222.410156 298.28125 222.476562 298.449219 222.476562 C 298.601562 222.476562 298.757812 222.421875 298.875 222.308594 Z M 306.867188 230.039062 C 312.199219 226.703125 322.742188 209.09375 323.195312 208.34375 C 323.367188 208.050781 323.273438 207.664062 322.976562 207.488281 C 322.675781 207.3125 322.292969 207.40625 322.117188 207.707031 C 322.011719 207.886719 311.289062 225.800781 306.207031 228.984375 C 305.914062 229.164062 305.824219 229.550781 306.007812 229.84375 C 306.125 230.03125 306.332031 230.140625 306.539062 230.140625 C 306.648438 230.132812 306.761719 230.109375 306.867188 230.039062 Z M 313.71875 235.605469 C 313.882812 235.53125 317.726562 233.621094 321.5 225.957031 C 324.90625 219.054688 328.273438 219.324219 328.34375 219.335938 C 328.6875 219.386719 328.992188 219.148438 329.050781 218.808594 C 329.101562 218.464844 328.867188 218.148438 328.53125 218.097656 C 328.355469 218.074219 324.261719 217.535156 320.382812 225.410156 C 316.820312 232.625 313.210938 234.464844 313.179688 234.480469 C 312.867188 234.632812 312.738281 235.007812 312.886719 235.3125 C 312.992188 235.539062 313.21875 235.667969 313.449219 235.667969 C 313.539062 235.664062 313.632812 235.644531 313.71875 235.605469 Z M 238.929688 330.234375 L 262.976562 264.757812 C 263.09375 264.429688 262.925781 264.074219 262.605469 263.957031 C 262.28125 263.835938 261.925781 264.007812 261.804688 264.324219 L 237.761719 329.804688 C 237.644531 330.128906 237.8125 330.484375 238.132812 330.605469 C 238.199219 330.628906 238.273438 330.640625 238.34375 330.640625 C 238.601562 330.640625 238.835938 330.484375 238.929688 330.234375 Z M 225.539062 319.070312 L 233.417969 284.828125 C 233.492188 284.488281 233.289062 284.152344 232.949219 284.078125 C 232.613281 284 232.273438 284.207031 232.199219 284.546875 L 224.320312 318.789062 C 224.242188 319.125 224.449219 319.460938 224.789062 319.539062 C 224.835938 319.550781 224.882812 319.554688 224.929688 319.554688 C 225.21875 319.554688 225.476562 319.355469 225.539062 319.070312 Z M 100.78125 337.402344 C 101.117188 337.347656 101.355469 337.027344 101.300781 336.683594 L 93.210938 286.3125 C 93.15625 285.96875 92.835938 285.738281 92.492188 285.796875 C 92.148438 285.851562 91.917969 286.171875 91.976562 286.515625 L 100.0625 336.882812 C 100.113281 337.191406 100.375 337.410156 100.679688 337.410156 C 100.710938 337.410156 100.75 337.410156 100.78125 337.402344 Z M 131.367188 323.78125 C 131.679688 323.636719 131.820312 323.269531 131.675781 322.949219 L 108.101562 271.511719 C 107.617188 270.46875 107.65625 269.230469 108.195312 268.210938 L 117.195312 251.179688 C 117.273438 251.027344 117.289062 250.847656 117.230469 250.683594 C 117.175781 250.523438 117.054688 250.390625 116.898438 250.316406 L 103.375 244.0625 C 101.667969 243.273438 100.8125 241.332031 101.382812 239.554688 L 115.792969 199.191406 C 115.914062 198.863281 115.738281 198.507812 115.414062 198.390625 C 115.085938 198.277344 114.730469 198.445312 114.613281 198.769531 L 100.195312 239.15625 C 99.429688 241.542969 100.570312 244.140625 102.851562 245.191406 L 115.78125 251.171875 L 107.09375 267.625 C 106.375 268.980469 106.332031 270.628906 106.96875 272.023438 L 130.542969 323.460938 C 130.648438 323.691406 130.875 323.824219 131.113281 323.824219 C 131.195312 323.835938 131.289062 323.816406 131.367188 323.78125 Z M 194.667969 321.039062 L 209.644531 266 C 210.050781 264.507812 209.75 262.9375 208.820312 261.699219 L 199.148438 248.828125 L 207.75 240.394531 C 209.3125 238.863281 209.695312 236.523438 208.699219 234.574219 L 190.40625 198.707031 C 190.25 198.402344 189.875 198.277344 189.570312 198.433594 C 189.261719 198.589844 189.136719 198.964844 189.292969 199.269531 L 207.585938 235.136719 C 208.332031 236.601562 208.042969 238.351562 206.875 239.492188 L 197.882812 248.316406 C 197.65625 248.535156 197.632812 248.886719 197.820312 249.132812 L 207.820312 262.449219 C 208.511719 263.375 208.738281 264.550781 208.4375 265.667969 L 193.460938 320.707031 C 193.367188 321.039062 193.570312 321.382812 193.898438 321.476562 C 193.957031 321.488281 194.011719 321.5 194.0625 321.5 C 194.34375 321.5 194.59375 321.3125 194.667969 321.039062 Z M 124.488281 228.183594 L 154.335938 226.515625 C 154.679688 226.496094 154.945312 226.203125 154.925781 225.859375 C 154.90625 225.515625 154.613281 225.253906 154.269531 225.269531 L 124.417969 226.941406 C 124.074219 226.957031 123.8125 227.253906 123.832031 227.597656 C 123.851562 227.925781 124.125 228.183594 124.457031 228.183594 C 124.460938 228.183594 124.476562 228.183594 124.488281 228.183594 Z M 161.175781 226.515625 L 182.695312 223.214844 C 183.039062 223.164062 183.269531 222.847656 183.21875 222.503906 C 183.167969 222.160156 182.84375 221.929688 182.507812 221.976562 L 160.988281 225.277344 C 160.644531 225.328125 160.414062 225.644531 160.460938 225.988281 C 160.511719 226.300781 160.773438 226.519531 161.082031 226.519531 C 161.113281 226.519531 161.144531 226.515625 161.175781 226.515625 Z M 163.476562 337.238281 C 163.820312 337.226562 164.085938 336.933594 164.074219 336.589844 L 159.699219 230.019531 C 159.6875 229.675781 159.394531 229.402344 159.050781 229.421875 C 158.707031 229.433594 158.4375 229.726562 158.449219 230.070312 L 162.824219 336.640625 C 162.835938 336.976562 163.113281 337.238281 163.449219 337.238281 C 163.457031 337.238281 163.46875 337.238281 163.476562 337.238281 Z M 163.476562 337.238281 " fill-opacity="1" fill-rule="nonzero"/></g><g clip-path="url(#id4)"><path fill="#5ce1e6" d="M 277.085938 62.71875 C 277.074219 62.636719 277.058594 62.546875 277.042969 62.457031 C 273.152344 62.929688 269.207031 63.144531 265.375 63.910156 C 252.402344 66.492188 241.417969 72.617188 233.226562 83.152344 C 224.914062 93.855469 222.042969 105.945312 225.039062 119.234375 C 227.09375 128.34375 231.90625 135.910156 238.78125 142.15625 C 239.746094 143.039062 239.875 143.824219 239.53125 144.992188 C 238.175781 149.589844 235.398438 153.21875 231.917969 156.386719 C 229.867188 158.25 227.710938 160.011719 225.742188 161.953125 C 224.144531 163.527344 224.40625 164.222656 226.53125 164.753906 C 231.359375 165.957031 236.160156 165.375 240.921875 164.386719 C 249.238281 162.667969 257.085938 159.570312 264.78125 156.054688 C 265.40625 155.765625 266.210938 155.625 266.882812 155.734375 C 274.515625 157 282.128906 156.910156 289.679688 155.230469 C 303.050781 152.242188 314.179688 145.636719 322.195312 134.34375 C 328.945312 124.84375 331.492188 114.222656 329.574219 102.703125 C 327.636719 91.128906 321.59375 81.914062 312.472656 74.710938 C 302.117188 66.542969 290.183594 62.863281 277.085938 62.71875 Z M 277.085938 62.71875 " fill-opacity="1" fill-rule="nonzero"/><path fill="#5ce1e6" d="M 329.566406 102.707031 C 331.492188 114.222656 328.941406 124.851562 322.1875 134.347656 C 314.171875 145.636719 303.046875 152.246094 289.679688 155.226562 C 282.132812 156.910156 274.515625 157.003906 266.882812 155.746094 C 266.210938 155.625 265.40625 155.769531 264.78125 156.058594 C 257.089844 159.582031 249.242188 162.671875 240.914062 164.390625 C 236.15625 165.375 231.359375 165.964844 226.53125 164.761719 C 224.402344 164.21875 224.152344 163.535156 225.738281 161.960938 C 227.707031 160.011719 229.859375 158.257812 231.914062 156.394531 C 235.398438 153.222656 238.175781 149.589844 239.53125 145 C 239.871094 143.824219 239.75 143.039062 238.777344 142.164062 C 231.902344 135.914062 227.09375 128.351562 225.039062 119.238281 C 222.046875 105.945312 224.917969 93.851562 233.222656 83.152344 C 241.417969 72.621094 252.402344 66.492188 265.371094 63.917969 C 269.203125 63.148438 273.144531 62.933594 277.039062 62.464844 C 277.066406 62.550781 277.074219 62.632812 277.085938 62.71875 C 290.1875 62.863281 302.121094 66.550781 312.480469 74.714844 C 321.589844 81.914062 327.632812 91.132812 329.566406 102.707031 Z M 329.566406 102.707031 " fill-opacity="1" fill-rule="nonzero"/></g></svg>