<svg xmlns="http://www.w3.org/2000/svg" xmlns:xlink="http://www.w3.org/1999/xlink" width="500" zoomAndPan="magnify" viewBox="0 0 375 374.999991" height="500" preserveAspectRatio="xMidYMid meet" version="1.0"><defs><clipPath id="id1"><path d="M 37.5 227 L 125 227 L 125 337.773438 L 37.5 337.773438 Z M 37.5 227 " clip-rule="nonzero"/></clipPath><clipPath id="id2"><path d="M 71 166 L 215 166 L 215 337.773438 L 71 337.773438 Z M 71 166 " clip-rule="nonzero"/></clipPath><clipPath id="id3"><path d="M 225 119 L 337.5 119 L 337.5 257 L 225 257 Z M 225 119 " clip-rule="nonzero"/></clipPath><clipPath id="id4"><path d="M 114 167 L 202 167 L 202 337.773438 L 114 337.773438 Z M 114 167 " clip-rule="nonzero"/></clipPath></defs><g clip-path="url(#id1)"><path fill="#ffdec7" d="M 124.15625 227.40625 L 91.273438 337.261719 L 37.667969 337.261719 L 71.289062 231.308594 Z M 124.15625 227.40625 " fill-opacity="1" fill-rule="nonzero"/></g><g clip-path="url(#id2)"><path fill="#5ce1e6" d="M 214.617188 236.207031 C 214.558594 238.511719 214.296875 240.789062 213.828125 243.046875 L 193.667969 337.765625 L 76.265625 337.765625 L 110.703125 241.96875 L 71.289062 231.308594 L 87.785156 190.042969 C 88.203125 188.996094 88.667969 187.972656 89.179688 186.972656 C 89.691406 185.96875 90.246094 184.992188 90.847656 184.042969 C 91.445312 183.089844 92.089844 182.167969 92.769531 181.273438 C 93.453125 180.378906 94.175781 179.519531 94.9375 178.691406 C 95.699219 177.863281 96.496094 177.070312 97.328125 176.316406 C 98.164062 175.558594 99.027344 174.84375 99.925781 174.167969 C 100.824219 173.488281 101.75 172.855469 102.703125 172.261719 C 103.660156 171.667969 104.640625 171.117188 105.644531 170.613281 C 106.648438 170.109375 107.675781 169.652344 108.722656 169.242188 C 109.769531 168.828125 110.832031 168.464844 111.910156 168.152344 C 112.988281 167.835938 114.082031 167.570312 115.183594 167.355469 C 116.289062 167.140625 117.398438 166.972656 118.515625 166.859375 C 119.636719 166.742188 120.757812 166.679688 121.878906 166.664062 C 123.003906 166.652344 124.125 166.6875 125.246094 166.777344 C 126.367188 166.867188 127.484375 167.003906 128.589844 167.195312 C 129.699219 167.382812 130.796875 167.621094 131.882812 167.910156 L 150.414062 172.871094 C 155.859375 174.328125 161.15625 176.210938 166.300781 178.523438 C 171.445312 180.835938 176.371094 183.546875 181.078125 186.652344 C 185.785156 189.761719 190.210938 193.226562 194.359375 197.050781 C 198.507812 200.871094 202.324219 205.003906 205.804688 209.441406 C 207.289062 211.332031 208.597656 213.332031 209.734375 215.449219 C 210.867188 217.566406 211.808594 219.769531 212.5625 222.050781 C 213.3125 224.332031 213.859375 226.660156 214.207031 229.039062 C 214.550781 231.414062 214.6875 233.804688 214.617188 236.207031 Z M 214.617188 236.207031 " fill-opacity="1" fill-rule="nonzero"/></g><path fill="#ffdec7" d="M 252.585938 235.617188 L 244.058594 296.722656 C 243.917969 297.71875 243.691406 298.695312 243.378906 299.652344 C 243.0625 300.609375 242.667969 301.527344 242.1875 302.414062 C 241.707031 303.296875 241.15625 304.132812 240.523438 304.917969 C 239.894531 305.703125 239.203125 306.425781 238.445312 307.085938 C 237.683594 307.746094 236.875 308.332031 236.007812 308.847656 C 235.144531 309.363281 234.242188 309.796875 233.300781 310.148438 C 232.359375 310.5 231.390625 310.765625 230.402344 310.945312 C 229.414062 311.125 228.414062 311.214844 227.410156 311.214844 L 199.300781 311.214844 C 199.300781 311.214844 210.589844 252.101562 215.820312 228.984375 C 216.632812 225.484375 217.402344 222.183594 218.144531 219.191406 L 240.984375 207.050781 C 242.195312 206.410156 243.347656 205.800781 244.398438 205.171875 Z M 252.585938 235.617188 " fill-opacity="1" fill-rule="nonzero"/><g clip-path="url(#id3)"><path fill="#d1d1d1" d="M 329.648438 205.269531 L 257.691406 184.082031 L 270.964844 251.121094 L 246.113281 256.050781 L 225.828125 155.957031 L 235.261719 159.636719 L 235.445312 157.539062 L 236.96875 140.691406 L 337.332031 119.703125 Z M 329.648438 205.269531 " fill-opacity="1" fill-rule="nonzero"/></g><path fill="#5ce1e6" d="M 240.382812 178.902344 L 218.6875 176.941406 L 222.257812 137.363281 L 243.949219 139.328125 Z M 240.382812 178.902344 " fill-opacity="1" fill-rule="nonzero"/><path fill="#ffdec7" d="M 271.6875 222.183594 C 271.027344 223.210938 270.253906 224.148438 269.371094 224.992188 C 269.753906 224.9375 270.136719 224.949219 270.515625 225.03125 C 273.25 225.722656 272.898438 230.265625 271.597656 232.546875 C 270.152344 235.109375 267.757812 236.894531 265.546875 238.316406 C 262.210938 240.480469 255.300781 244.460938 253.554688 238.40625 C 252.851562 235.964844 254.128906 234.054688 255.730469 232.636719 C 253.546875 232.898438 251.699219 232.207031 250.96875 229.566406 C 250.128906 226.554688 252.476562 224.152344 254.808594 222.460938 C 255.679688 221.816406 256.578125 221.175781 257.5 220.535156 C 253.292969 221.816406 248.757812 221.90625 247.835938 216.863281 C 247.195312 213.28125 249.96875 211 252.644531 209.519531 C 257.53125 206.820312 263.152344 203.851562 268.449219 203.175781 C 269.273438 203.027344 270.085938 203.070312 270.886719 203.308594 C 274.21875 204.507812 273.152344 209.847656 271.21875 212.371094 C 270.644531 213.113281 270.003906 213.796875 269.300781 214.414062 C 269.792969 214.292969 270.289062 214.269531 270.792969 214.34375 C 273.839844 214.890625 273.257812 219.695312 271.6875 222.183594 Z M 271.6875 222.183594 " fill-opacity="1" fill-rule="nonzero"/><path fill="#ffdec7" d="M 244.398438 205.15625 C 243.347656 205.796875 242.195312 206.386719 240.984375 207.03125 L 217.074219 223.515625 C 218.484375 217.8125 220.878906 208.8125 221.988281 205.71875 C 222.40625 204.386719 223.011719 203.144531 223.804688 201.996094 C 230.375 194.414062 249.570312 188.851562 252.621094 193.398438 C 255.25 197.367188 251.734375 200.945312 244.398438 205.15625 Z M 244.398438 205.15625 " fill-opacity="1" fill-rule="nonzero"/><path fill="#2009ef" d="M 234.363281 110.773438 C 228.480469 116.652344 221.4375 115.425781 215.636719 112.535156 L 212.292969 121.417969 L 156.316406 156.21875 L 147.058594 147.664062 C 146.667969 148.304688 146.285156 148.945312 145.925781 149.585938 C 104.84375 105.609375 169.816406 40.785156 212.105469 81.648438 C 229.121094 75.125 242.257812 102.933594 234.363281 110.773438 Z M 234.363281 110.773438 " fill-opacity="1" fill-rule="nonzero"/><path fill="#ffdec7" d="M 171.652344 136.011719 C 165.007812 131.847656 159.050781 119.542969 167.125 112.5625 C 177.820312 103.300781 187.941406 121.445312 187.941406 121.445312 C 191.359375 120.027344 194.496094 118.144531 197.351562 115.789062 C 200.207031 113.433594 202.652344 110.710938 204.691406 107.621094 C 206.351562 108.664062 211.632812 110.582031 216.140625 110.402344 C 216.140625 110.402344 216.78125 115.664062 215.941406 124.398438 C 215.820312 125.597656 215.742188 126.765625 215.699219 127.886719 C 215.699219 127.886719 221.238281 128.878906 221.257812 131.441406 C 221.257812 134.601562 215.726562 136.648438 215.726562 136.648438 C 215.960938 143.839844 216.261719 149.394531 212.402344 154.84375 C 208.988281 159.644531 202.996094 164.695312 188.964844 159.375 L 182.972656 192.953125 C 168.589844 194.128906 154.84375 187.824219 142.378906 180.542969 L 140.457031 179.433594 C 140.820312 176.871094 145.917969 149.78125 146.40625 146.453125 C 151.71875 146 165.152344 144.054688 171.652344 136.011719 Z M 171.652344 136.011719 " fill-opacity="1" fill-rule="nonzero"/><path fill="#2009ef" d="M 195.09375 128.320312 C 195.382812 128.359375 195.664062 128.425781 195.941406 128.523438 C 196.21875 128.617188 196.484375 128.738281 196.734375 128.882812 C 196.988281 129.03125 197.222656 129.199219 197.441406 129.394531 C 197.660156 129.585938 197.859375 129.800781 198.035156 130.03125 C 198.214844 130.261719 198.367188 130.511719 198.496094 130.773438 C 198.625 131.035156 198.726562 131.308594 198.800781 131.589844 C 198.875 131.871094 198.921875 132.160156 198.941406 132.449219 C 198.960938 132.742188 198.949219 133.03125 198.910156 133.320312 C 198.875 133.613281 198.808594 133.894531 198.714844 134.171875 C 198.621094 134.449219 198.5 134.710938 198.351562 134.964844 C 198.207031 135.21875 198.039062 135.453125 197.84375 135.675781 C 197.652344 135.894531 197.441406 136.09375 197.210938 136.269531 C 196.976562 136.449219 196.730469 136.601562 196.46875 136.730469 C 196.207031 136.859375 195.9375 136.960938 195.652344 137.039062 C 195.371094 137.113281 195.085938 137.160156 194.792969 137.179688 C 194.503906 137.199219 194.214844 137.191406 193.921875 137.152344 C 193.632812 137.113281 193.351562 137.050781 193.074219 136.957031 C 192.796875 136.863281 192.535156 136.742188 192.28125 136.597656 C 192.027344 136.449219 191.792969 136.28125 191.570312 136.089844 C 191.351562 135.898438 191.152344 135.6875 190.976562 135.453125 C 190.796875 135.222656 190.644531 134.976562 190.511719 134.714844 C 190.382812 134.453125 190.28125 134.179688 190.203125 133.898438 C 190.128906 133.617188 190.082031 133.332031 190.0625 133.039062 C 190.039062 132.746094 190.050781 132.457031 190.085938 132.167969 C 190.125 131.875 190.195312 131.59375 190.289062 131.316406 C 190.382812 131.039062 190.503906 130.773438 190.652344 130.519531 C 190.796875 130.265625 190.96875 130.03125 191.160156 129.808594 C 191.355469 129.589844 191.566406 129.390625 191.800781 129.210938 C 192.03125 129.035156 192.277344 128.878906 192.542969 128.75 C 192.804688 128.621094 193.078125 128.515625 193.359375 128.441406 C 193.640625 128.363281 193.929688 128.316406 194.21875 128.296875 C 194.511719 128.277344 194.804688 128.285156 195.09375 128.320312 Z M 195.09375 128.320312 " fill-opacity="1" fill-rule="nonzero"/><path fill="#231f20" d="M 101.640625 267.488281 C 101.554688 267.488281 101.472656 267.476562 101.390625 267.453125 C 101.199219 267.382812 101.0625 267.253906 100.972656 267.074219 C 100.886719 266.890625 100.875 266.703125 100.941406 266.507812 L 119.171875 215 C 119.230469 214.792969 119.351562 214.636719 119.542969 214.539062 C 119.734375 214.441406 119.929688 214.425781 120.128906 214.496094 C 120.332031 214.570312 120.476562 214.703125 120.558594 214.902344 C 120.644531 215.101562 120.644531 215.296875 120.554688 215.492188 L 102.339844 267.003906 C 102.285156 267.148438 102.195312 267.269531 102.066406 267.359375 C 101.9375 267.445312 101.796875 267.492188 101.640625 267.488281 Z M 200.023438 311.359375 L 216.03125 233.636719 C 216.085938 233.433594 216.058594 233.238281 215.945312 233.0625 C 215.832031 232.882812 215.675781 232.769531 215.46875 232.726562 C 215.261719 232.683594 215.070312 232.726562 214.898438 232.847656 C 214.722656 232.96875 214.621094 233.132812 214.589844 233.34375 L 198.582031 311.066406 C 198.542969 311.265625 198.578125 311.449219 198.6875 311.617188 C 198.800781 311.785156 198.957031 311.890625 199.152344 311.929688 L 199.300781 311.929688 C 199.472656 311.933594 199.628906 311.878906 199.761719 311.773438 C 199.898438 311.667969 199.984375 311.527344 200.023438 311.359375 Z M 200.023438 311.359375 " fill-opacity="1" fill-rule="nonzero"/><path fill="#231f20" d="M 259.085938 174.167969 L 254.234375 173.730469 L 255.691406 157.523438 L 260.554688 157.964844 Z M 259.585938 185.0625 C 259.648438 184.867188 259.632812 184.683594 259.542969 184.5 C 259.449219 184.320312 259.304688 184.199219 259.113281 184.140625 L 240.605469 178.199219 L 240.445312 178.199219 L 218.753906 176.238281 C 218.554688 176.222656 218.375 176.28125 218.222656 176.410156 C 218.070312 176.539062 217.984375 176.703125 217.96875 176.902344 C 217.949219 177.105469 218.003906 177.28125 218.128906 177.4375 C 218.257812 177.59375 218.417969 177.683594 218.617188 177.703125 L 240.234375 179.660156 L 258.664062 185.574219 C 258.738281 185.59375 258.8125 185.605469 258.886719 185.605469 C 259.050781 185.605469 259.199219 185.554688 259.328125 185.453125 C 259.457031 185.351562 259.542969 185.222656 259.585938 185.0625 Z M 259.585938 185.0625 " fill-opacity="1" fill-rule="nonzero"/><g clip-path="url(#id4)"><path fill="#2009ef" d="M 201.902344 203.15625 C 200.800781 214.75 188.679688 219.292969 188.554688 219.339844 C 188.476562 219.367188 188.390625 219.378906 188.308594 219.382812 C 188.046875 219.382812 187.84375 219.277344 187.699219 219.0625 L 171.390625 195.316406 C 171.550781 210.277344 171.179688 290.171875 146.066406 337.035156 C 145.929688 337.292969 145.714844 337.425781 145.425781 337.425781 C 145.300781 337.429688 145.1875 337.398438 145.078125 337.335938 C 144.898438 337.242188 144.78125 337.097656 144.722656 336.902344 C 144.664062 336.707031 144.683594 336.523438 144.777344 336.34375 C 169.6875 289.824219 170.089844 210.449219 169.921875 195.40625 C 166.542969 200.71875 157.328125 214.261719 148.953125 218.234375 C 148.675781 218.363281 148.417969 218.335938 148.179688 218.144531 C 142.242188 213.199219 136.714844 207.824219 131.601562 202.027344 C 120.460938 189.347656 114.582031 177.980469 114.128906 168.238281 C 114.117188 168.035156 114.179688 167.859375 114.316406 167.710938 C 114.453125 167.558594 114.621094 167.480469 114.824219 167.46875 C 115.03125 167.453125 115.207031 167.515625 115.359375 167.652344 C 115.511719 167.789062 115.59375 167.960938 115.601562 168.167969 C 116.578125 189.347656 145.167969 213.742188 148.734375 216.699219 C 158.507812 211.683594 169.867188 192.707031 169.980469 192.507812 C 170.003906 192.472656 170.03125 192.4375 170.0625 192.40625 L 170.0625 192.375 C 170.125 192.316406 170.195312 192.269531 170.269531 192.234375 L 170.320312 192.234375 C 170.402344 192.199219 170.484375 192.179688 170.570312 192.175781 L 170.621094 192.175781 C 170.695312 192.179688 170.769531 192.195312 170.839844 192.222656 L 170.898438 192.222656 C 170.972656 192.253906 171.039062 192.296875 171.09375 192.355469 C 171.121094 192.382812 171.148438 192.414062 171.171875 192.445312 L 188.53125 217.710938 C 190.773438 216.730469 199.503906 212.320312 200.390625 202.96875 C 200.417969 202.769531 200.507812 202.609375 200.664062 202.484375 C 200.820312 202.363281 200.996094 202.308594 201.195312 202.328125 C 201.410156 202.335938 201.589844 202.421875 201.730469 202.585938 C 201.871094 202.75 201.925781 202.941406 201.902344 203.15625 Z M 201.902344 203.15625 " fill-opacity="1" fill-rule="nonzero"/></g><path fill="#231f20" d="M 254.789062 223.210938 C 254.621094 223.210938 254.46875 223.164062 254.335938 223.0625 C 254.203125 222.960938 254.113281 222.828125 254.070312 222.667969 C 254.027344 222.503906 254.039062 222.34375 254.105469 222.191406 C 254.171875 222.035156 254.277344 221.917969 254.425781 221.835938 L 268.179688 213.960938 C 268.355469 213.859375 268.542969 213.835938 268.738281 213.890625 C 268.933594 213.945312 269.082031 214.058594 269.183594 214.234375 C 269.285156 214.414062 269.308594 214.601562 269.253906 214.796875 C 269.199219 214.992188 269.085938 215.140625 268.910156 215.242188 L 255.15625 223.113281 C 255.042969 223.179688 254.921875 223.210938 254.789062 223.210938 Z M 257.011719 232.527344 L 270.84375 225.691406 C 271.046875 225.613281 271.1875 225.472656 271.269531 225.273438 C 271.347656 225.070312 271.339844 224.871094 271.246094 224.675781 C 271.152344 224.480469 271 224.355469 270.792969 224.292969 C 270.585938 224.230469 270.386719 224.257812 270.203125 224.371094 L 256.371094 231.207031 C 256.191406 231.296875 256.066406 231.441406 256 231.632812 C 255.9375 231.824219 255.949219 232.011719 256.039062 232.195312 C 256.167969 232.460938 256.382812 232.597656 256.679688 232.605469 C 256.796875 232.609375 256.90625 232.585938 257.011719 232.527344 Z M 257.011719 232.527344 " fill-opacity="1" fill-rule="nonzero"/><path fill="#231f20" d="M 189.214844 159.949219 C 189.140625 160.109375 189.023438 160.230469 188.863281 160.308594 L 188.320312 165.121094 C 188.320312 165.121094 183.835938 160.097656 182.222656 156.945312 C 180.972656 156.058594 179.832031 155.050781 178.796875 153.917969 C 178.664062 153.769531 178.601562 153.589844 178.609375 153.386719 C 178.621094 153.183594 178.703125 153.015625 178.851562 152.878906 C 179.003906 152.742188 179.179688 152.679688 179.382812 152.691406 C 179.585938 152.699219 179.757812 152.78125 179.894531 152.933594 C 182.503906 155.84375 186.199219 157.828125 188.859375 158.984375 C 189.039062 159.066406 189.167969 159.203125 189.238281 159.394531 C 189.308594 159.582031 189.300781 159.769531 189.214844 159.949219 Z M 180.835938 124.699219 C 180.9375 124.699219 181.035156 124.679688 181.128906 124.636719 C 181.316406 124.554688 181.445312 124.417969 181.515625 124.226562 C 181.589844 124.035156 181.582031 123.847656 181.5 123.664062 C 181.339844 123.304688 177.492188 114.867188 170.84375 115.972656 C 170.628906 115.988281 170.457031 116.082031 170.324219 116.253906 C 170.191406 116.421875 170.144531 116.613281 170.179688 116.828125 C 170.214844 117.039062 170.324219 117.207031 170.503906 117.324219 C 170.683594 117.441406 170.878906 117.472656 171.089844 117.417969 C 176.621094 116.476562 180.125 124.167969 180.160156 124.246094 C 180.277344 124.554688 180.503906 124.714844 180.835938 124.71875 Z M 212.292969 121.398438 C 212.550781 120.984375 212.65625 120.53125 212.609375 120.042969 C 212.5625 119.554688 212.375 119.132812 212.042969 118.773438 C 211.617188 118.445312 211.140625 118.230469 210.613281 118.132812 C 209.949219 117.953125 209.273438 117.914062 208.589844 118.007812 C 207.214844 118.253906 205.960938 118.78125 204.820312 119.59375 C 204.191406 119.957031 203.679688 120.441406 203.277344 121.046875 C 203.078125 121.351562 202.964844 121.683594 202.9375 122.046875 C 202.90625 122.40625 202.96875 122.753906 203.117188 123.085938 C 203.621094 124.054688 204.917969 124.265625 206.003906 124.195312 C 207.4375 124.117188 208.804688 123.785156 210.109375 123.195312 C 211.023438 122.832031 211.75 122.242188 212.292969 121.417969 Z M 210.632812 131.070312 C 210.664062 130.851562 210.648438 130.636719 210.59375 130.425781 C 210.539062 130.210938 210.441406 130.019531 210.308594 129.84375 C 210.175781 129.667969 210.015625 129.527344 209.824219 129.414062 C 209.636719 129.304688 209.429688 129.234375 209.214844 129.203125 C 208.996094 129.175781 208.78125 129.1875 208.566406 129.246094 C 208.355469 129.300781 208.160156 129.394531 207.988281 129.527344 C 207.8125 129.660156 207.667969 129.824219 207.558594 130.011719 C 207.449219 130.203125 207.378906 130.40625 207.347656 130.625 C 207.316406 130.84375 207.332031 131.058594 207.386719 131.269531 C 207.441406 131.484375 207.535156 131.675781 207.667969 131.851562 C 207.800781 132.027344 207.964844 132.171875 208.152344 132.28125 C 208.34375 132.394531 208.546875 132.464844 208.765625 132.492188 C 208.980469 132.523438 209.195312 132.511719 209.40625 132.457031 C 209.621094 132.402344 209.8125 132.308594 209.988281 132.179688 C 210.164062 132.046875 210.308594 131.886719 210.417969 131.699219 C 210.53125 131.511719 210.601562 131.308594 210.632812 131.089844 Z M 214.234375 145.292969 C 214.234375 147.855469 213.304688 150.496094 211.53125 150.496094 C 209.757812 150.496094 208.828125 147.882812 208.828125 145.292969 C 208.828125 142.703125 209.761719 140.082031 211.53125 140.082031 C 213.296875 140.082031 214.234375 142.722656 214.234375 145.3125 Z M 212.761719 145.292969 C 212.761719 142.863281 211.890625 141.554688 211.53125 141.554688 C 211.171875 141.554688 210.300781 142.839844 210.300781 145.292969 C 210.300781 147.746094 211.179688 149.03125 211.53125 149.03125 C 211.882812 149.03125 212.761719 147.734375 212.761719 145.3125 Z M 212.761719 145.292969 " fill-opacity="1" fill-rule="nonzero"/></svg>